M48
;DRILL file {KiCad 0.201511171411+6319~30~ubuntu15.10.1-product} date Fr 04 Dez 2015 11:52:53 CET
;FORMAT={3:3/ absolute / metric / suppress leading zeros}
FMAT,2
METRIC,TZ
T1C0.400
T2C1.016
%
G90
G05
M71
T1
X152400Y-66802
X152400Y-68072
X152400Y-69342
X152400Y-70612
X152400Y-71882
X152400Y-73152
X156972Y-65532
X156972Y-66548
X157988Y-65532
X157988Y-66548
X157988Y-68072
X157988Y-69215
X157988Y-70485
X159004Y-65532
X159004Y-66548
X160020Y-65532
X160020Y-66548
X161036Y-65532
X161036Y-66548
X161290Y-80391
X164084Y-76708
X166116Y-71120
X166116Y-75438
X170688Y-65024
X170688Y-66040
X170688Y-67056
X170688Y-68072
X171704Y-65024
X171704Y-66040
X171704Y-67056
X171704Y-68072
X172720Y-65024
X172720Y-66040
X172720Y-67056
X172720Y-68072
X174244Y-69088
X174244Y-70485
X174244Y-71628
X174244Y-73152
X175641Y-85344
X176149Y-82296
X179578Y-66548
X179578Y-68326
X179578Y-69850
X179578Y-71374
X179578Y-72898
T2
X149733Y-62992
X149733Y-68072
X149733Y-73152
X163957Y-85725
X166497Y-85725
X169037Y-85725
X181991Y-62738
X181991Y-67818
X181991Y-72898
X182118Y-80264
X182118Y-85344
T0
M30
