G04 #@! TF.FileFunction,Legend,Top*
%FSLAX46Y46*%
G04 Gerber Fmt 4.6, Leading zero omitted, Abs format (unit mm)*
G04 Created by KiCad (PCBNEW 0.201511171411+6319~30~ubuntu15.10.1-product) date Fr 04 Dez 2015 11:52:51 CET*
%MOMM*%
G01*
G04 APERTURE LIST*
%ADD10C,0.100000*%
%ADD11C,0.200000*%
%ADD12C,0.300000*%
%ADD13C,0.150000*%
%ADD14C,0.203200*%
%ADD15C,0.127000*%
%ADD16C,0.099060*%
%ADD17C,0.152400*%
G04 APERTURE END LIST*
D10*
D11*
X177292000Y-86106000D02*
X177546000Y-86106000D01*
X175006000Y-83820000D02*
X177292000Y-86106000D01*
X165608000Y-81661000D02*
X170688000Y-81661000D01*
X162179000Y-85090000D02*
X165608000Y-81661000D01*
X162179000Y-86868000D02*
X162179000Y-85090000D01*
D12*
X174307715Y-62978571D02*
X173593429Y-62978571D01*
X173593429Y-61478571D01*
X175093429Y-61478571D02*
X175379143Y-61478571D01*
X175522001Y-61550000D01*
X175664858Y-61692857D01*
X175736286Y-61978571D01*
X175736286Y-62478571D01*
X175664858Y-62764286D01*
X175522001Y-62907143D01*
X175379143Y-62978571D01*
X175093429Y-62978571D01*
X174950572Y-62907143D01*
X174807715Y-62764286D01*
X174736286Y-62478571D01*
X174736286Y-61978571D01*
X174807715Y-61692857D01*
X174950572Y-61550000D01*
X175093429Y-61478571D01*
X176307715Y-62550000D02*
X177022001Y-62550000D01*
X176164858Y-62978571D02*
X176664858Y-61478571D01*
X177164858Y-62978571D01*
X177664858Y-62978571D02*
X177664858Y-61478571D01*
X178022001Y-61478571D01*
X178236286Y-61550000D01*
X178379144Y-61692857D01*
X178450572Y-61835714D01*
X178522001Y-62121429D01*
X178522001Y-62335714D01*
X178450572Y-62621429D01*
X178379144Y-62764286D01*
X178236286Y-62907143D01*
X178022001Y-62978571D01*
X177664858Y-62978571D01*
X172272000Y-65307143D02*
X172486286Y-65378571D01*
X172843429Y-65378571D01*
X172986286Y-65307143D01*
X173057715Y-65235714D01*
X173129143Y-65092857D01*
X173129143Y-64950000D01*
X173057715Y-64807143D01*
X172986286Y-64735714D01*
X172843429Y-64664286D01*
X172557715Y-64592857D01*
X172414857Y-64521429D01*
X172343429Y-64450000D01*
X172272000Y-64307143D01*
X172272000Y-64164286D01*
X172343429Y-64021429D01*
X172414857Y-63950000D01*
X172557715Y-63878571D01*
X172914857Y-63878571D01*
X173129143Y-63950000D01*
X173629143Y-63878571D02*
X173986286Y-65378571D01*
X174272000Y-64307143D01*
X174557714Y-65378571D01*
X174914857Y-63878571D01*
X175486286Y-65378571D02*
X175486286Y-63878571D01*
X175986286Y-63878571D02*
X176843429Y-63878571D01*
X176414858Y-65378571D02*
X176414858Y-63878571D01*
X178200572Y-65235714D02*
X178129143Y-65307143D01*
X177914857Y-65378571D01*
X177772000Y-65378571D01*
X177557715Y-65307143D01*
X177414857Y-65164286D01*
X177343429Y-65021429D01*
X177272000Y-64735714D01*
X177272000Y-64521429D01*
X177343429Y-64235714D01*
X177414857Y-64092857D01*
X177557715Y-63950000D01*
X177772000Y-63878571D01*
X177914857Y-63878571D01*
X178129143Y-63950000D01*
X178200572Y-64021429D01*
X178843429Y-65378571D02*
X178843429Y-63878571D01*
X178843429Y-64592857D02*
X179700572Y-64592857D01*
X179700572Y-65378571D02*
X179700572Y-63878571D01*
D13*
X170587000Y-84425000D02*
X169037000Y-84425000D01*
X170587000Y-85725000D02*
X170587000Y-84425000D01*
X169291000Y-87249000D02*
X169291000Y-86868000D01*
X168783000Y-87249000D02*
X168783000Y-86868000D01*
X166751000Y-87249000D02*
X166751000Y-86868000D01*
X166243000Y-87249000D02*
X166243000Y-86868000D01*
X164211000Y-87249000D02*
X164211000Y-86868000D01*
X163703000Y-87249000D02*
X163703000Y-86868000D01*
X180691000Y-61188000D02*
X180691000Y-62738000D01*
X181991000Y-61188000D02*
X180691000Y-61188000D01*
X180818000Y-78714000D02*
X180818000Y-80264000D01*
X182118000Y-78714000D02*
X180818000Y-78714000D01*
X159249580Y-82550000D02*
X158299620Y-83251040D01*
X158299620Y-83251040D02*
X158299620Y-81848960D01*
X158299620Y-81848960D02*
X159249580Y-82550000D01*
X159249580Y-83251040D02*
X159249580Y-81848960D01*
X161000440Y-81150460D02*
X161000440Y-81300320D01*
X161000440Y-83949540D02*
X161000440Y-83799680D01*
X160549140Y-81150460D02*
X160549140Y-81351120D01*
X156499560Y-81201260D02*
X156499560Y-81300320D01*
X160549140Y-83898740D02*
X160549140Y-83748880D01*
X156499560Y-83949540D02*
X156499560Y-83799680D01*
X160549140Y-80799940D02*
X160549140Y-81150460D01*
X160549140Y-84300060D02*
X160549140Y-83949540D01*
X156499560Y-80799940D02*
X156499560Y-81150460D01*
X161000440Y-80799940D02*
X161000440Y-81150460D01*
X161000440Y-84300060D02*
X161000440Y-83949540D01*
X156499560Y-84300060D02*
X156499560Y-83949540D01*
X161000440Y-80799940D02*
X156499560Y-80799940D01*
X161000440Y-84300060D02*
X156499560Y-84300060D01*
X155194000Y-75573420D02*
X155895040Y-76523380D01*
X155895040Y-76523380D02*
X154492960Y-76523380D01*
X154492960Y-76523380D02*
X155194000Y-75573420D01*
X155895040Y-75573420D02*
X154492960Y-75573420D01*
X153794460Y-73822560D02*
X153944320Y-73822560D01*
X156593540Y-73822560D02*
X156443680Y-73822560D01*
X153794460Y-74273860D02*
X153995120Y-74273860D01*
X153845260Y-78323440D02*
X153944320Y-78323440D01*
X156542740Y-74273860D02*
X156392880Y-74273860D01*
X156593540Y-78323440D02*
X156443680Y-78323440D01*
X153443940Y-74273860D02*
X153794460Y-74273860D01*
X156944060Y-74273860D02*
X156593540Y-74273860D01*
X153443940Y-78323440D02*
X153794460Y-78323440D01*
X153443940Y-73822560D02*
X153794460Y-73822560D01*
X156944060Y-73822560D02*
X156593540Y-73822560D01*
X156944060Y-78323440D02*
X156593540Y-78323440D01*
X153443940Y-73822560D02*
X153443940Y-78323440D01*
X156944060Y-73822560D02*
X156944060Y-78323440D01*
X169053000Y-64340000D02*
X171053000Y-64340000D01*
X171053000Y-61390000D02*
X169053000Y-61390000D01*
X177253000Y-74033000D02*
X177253000Y-73033000D01*
X175553000Y-73033000D02*
X175553000Y-74033000D01*
X161917000Y-76493000D02*
X160917000Y-76493000D01*
X160917000Y-78193000D02*
X161917000Y-78193000D01*
X165500000Y-72806000D02*
X163950000Y-72806000D01*
X165500000Y-74006000D02*
X163950000Y-74006000D01*
X161652000Y-74133000D02*
X163202000Y-74133000D01*
X161652000Y-72933000D02*
X163202000Y-72933000D01*
D14*
X168338500Y-75628500D02*
X169545000Y-74358500D01*
X168338500Y-74358500D02*
X168338500Y-77533500D01*
X168338500Y-77533500D02*
X171513500Y-77533500D01*
X171513500Y-77533500D02*
X171513500Y-74358500D01*
X171513500Y-74358500D02*
X168338500Y-74358500D01*
D13*
X162195000Y-61390000D02*
X164195000Y-61390000D01*
X164195000Y-64340000D02*
X162195000Y-64340000D01*
D15*
X163703000Y-67149980D02*
X163703000Y-72499220D01*
X160401000Y-72499220D02*
X160401000Y-67149980D01*
X160401000Y-67149980D02*
X163703000Y-67149980D01*
X160401000Y-72499220D02*
X163703000Y-72499220D01*
X161544000Y-72517000D02*
X161544000Y-72009000D01*
X161544000Y-72009000D02*
X162560000Y-72009000D01*
X162560000Y-72009000D02*
X162560000Y-72517000D01*
X168275000Y-73820020D02*
X168275000Y-68470780D01*
X171577000Y-68470780D02*
X171577000Y-73820020D01*
X171577000Y-73820020D02*
X168275000Y-73820020D01*
X171577000Y-68470780D02*
X168275000Y-68470780D01*
X170434000Y-68453000D02*
X170434000Y-68961000D01*
X170434000Y-68961000D02*
X169418000Y-68961000D01*
X169418000Y-68961000D02*
X169418000Y-68453000D01*
D13*
X168267000Y-68239000D02*
X167267000Y-68239000D01*
X167267000Y-66889000D02*
X168267000Y-66889000D01*
X162044000Y-75859000D02*
X161044000Y-75859000D01*
X161044000Y-74509000D02*
X162044000Y-74509000D01*
X176919000Y-77557000D02*
X177919000Y-77557000D01*
X177919000Y-78907000D02*
X176919000Y-78907000D01*
X178046000Y-80939000D02*
X177046000Y-80939000D01*
X177046000Y-79589000D02*
X178046000Y-79589000D01*
X168140000Y-83733000D02*
X167140000Y-83733000D01*
X167140000Y-82383000D02*
X168140000Y-82383000D01*
D16*
X170815000Y-83820000D02*
X174879000Y-83820000D01*
X170815000Y-80010000D02*
X174879000Y-80010000D01*
X174879000Y-80010000D02*
X174879000Y-83820000D01*
X170815000Y-83693000D02*
X170815000Y-83820000D01*
X170815000Y-80010000D02*
X170815000Y-83693000D01*
X170815000Y-81407000D02*
X171323000Y-81407000D01*
X171323000Y-81407000D02*
X171323000Y-82423000D01*
X171323000Y-82423000D02*
X170815000Y-82423000D01*
D13*
X171902381Y-86717095D02*
X170902381Y-86717095D01*
X170902381Y-86336142D01*
X170950000Y-86240904D01*
X170997619Y-86193285D01*
X171092857Y-86145666D01*
X171235714Y-86145666D01*
X171330952Y-86193285D01*
X171378571Y-86240904D01*
X171426190Y-86336142D01*
X171426190Y-86717095D01*
X170902381Y-85812333D02*
X170902381Y-85193285D01*
X171283333Y-85526619D01*
X171283333Y-85383761D01*
X171330952Y-85288523D01*
X171378571Y-85240904D01*
X171473810Y-85193285D01*
X171711905Y-85193285D01*
X171807143Y-85240904D01*
X171854762Y-85288523D01*
X171902381Y-85383761D01*
X171902381Y-85669476D01*
X171854762Y-85764714D01*
X171807143Y-85812333D01*
X181252905Y-60650381D02*
X181252905Y-59650381D01*
X181633858Y-59650381D01*
X181729096Y-59698000D01*
X181776715Y-59745619D01*
X181824334Y-59840857D01*
X181824334Y-59983714D01*
X181776715Y-60078952D01*
X181729096Y-60126571D01*
X181633858Y-60174190D01*
X181252905Y-60174190D01*
X182205286Y-59745619D02*
X182252905Y-59698000D01*
X182348143Y-59650381D01*
X182586239Y-59650381D01*
X182681477Y-59698000D01*
X182729096Y-59745619D01*
X182776715Y-59840857D01*
X182776715Y-59936095D01*
X182729096Y-60078952D01*
X182157667Y-60650381D01*
X182776715Y-60650381D01*
X151661905Y-68524381D02*
X151661905Y-67524381D01*
X152042858Y-67524381D01*
X152138096Y-67572000D01*
X152185715Y-67619619D01*
X152233334Y-67714857D01*
X152233334Y-67857714D01*
X152185715Y-67952952D01*
X152138096Y-68000571D01*
X152042858Y-68048190D01*
X151661905Y-68048190D01*
X153185715Y-68524381D02*
X152614286Y-68524381D01*
X152900000Y-68524381D02*
X152900000Y-67524381D01*
X152804762Y-67667238D01*
X152709524Y-67762476D01*
X152614286Y-67810095D01*
X181252905Y-78176381D02*
X181252905Y-77176381D01*
X181633858Y-77176381D01*
X181729096Y-77224000D01*
X181776715Y-77271619D01*
X181824334Y-77366857D01*
X181824334Y-77509714D01*
X181776715Y-77604952D01*
X181729096Y-77652571D01*
X181633858Y-77700190D01*
X181252905Y-77700190D01*
X182681477Y-77509714D02*
X182681477Y-78176381D01*
X182443381Y-77128762D02*
X182205286Y-77843048D01*
X182824334Y-77843048D01*
X158011905Y-85669381D02*
X158011905Y-84669381D01*
X158250000Y-84669381D01*
X158392858Y-84717000D01*
X158488096Y-84812238D01*
X158535715Y-84907476D01*
X158583334Y-85097952D01*
X158583334Y-85240810D01*
X158535715Y-85431286D01*
X158488096Y-85526524D01*
X158392858Y-85621762D01*
X158250000Y-85669381D01*
X158011905Y-85669381D01*
X158916667Y-84669381D02*
X159535715Y-84669381D01*
X159202381Y-85050333D01*
X159345239Y-85050333D01*
X159440477Y-85097952D01*
X159488096Y-85145571D01*
X159535715Y-85240810D01*
X159535715Y-85478905D01*
X159488096Y-85574143D01*
X159440477Y-85621762D01*
X159345239Y-85669381D01*
X159059524Y-85669381D01*
X158964286Y-85621762D01*
X158916667Y-85574143D01*
X161788095Y-81302381D02*
X161788095Y-80302381D01*
X162359524Y-81302381D02*
X161930952Y-80730952D01*
X162359524Y-80302381D02*
X161788095Y-80873810D01*
X155512165Y-81017407D02*
X155988356Y-81017407D01*
X155416927Y-81303121D02*
X155750260Y-80303121D01*
X156083594Y-81303121D01*
X153106381Y-76938095D02*
X152106381Y-76938095D01*
X152106381Y-76700000D01*
X152154000Y-76557142D01*
X152249238Y-76461904D01*
X152344476Y-76414285D01*
X152534952Y-76366666D01*
X152677810Y-76366666D01*
X152868286Y-76414285D01*
X152963524Y-76461904D01*
X153058762Y-76557142D01*
X153106381Y-76700000D01*
X153106381Y-76938095D01*
X152201619Y-75985714D02*
X152154000Y-75938095D01*
X152106381Y-75842857D01*
X152106381Y-75604761D01*
X152154000Y-75509523D01*
X152201619Y-75461904D01*
X152296857Y-75414285D01*
X152392095Y-75414285D01*
X152534952Y-75461904D01*
X153106381Y-76033333D01*
X153106381Y-75414285D01*
X153946381Y-73034905D02*
X152946381Y-73034905D01*
X153946381Y-72463476D02*
X153374952Y-72892048D01*
X152946381Y-72463476D02*
X153517810Y-73034905D01*
X153661407Y-79310835D02*
X153661407Y-78834644D01*
X153947121Y-79406073D02*
X152947121Y-79072740D01*
X153947121Y-78739406D01*
X170013334Y-63222143D02*
X169965715Y-63269762D01*
X169822858Y-63317381D01*
X169727620Y-63317381D01*
X169584762Y-63269762D01*
X169489524Y-63174524D01*
X169441905Y-63079286D01*
X169394286Y-62888810D01*
X169394286Y-62745952D01*
X169441905Y-62555476D01*
X169489524Y-62460238D01*
X169584762Y-62365000D01*
X169727620Y-62317381D01*
X169822858Y-62317381D01*
X169965715Y-62365000D01*
X170013334Y-62412619D01*
X170965715Y-63317381D02*
X170394286Y-63317381D01*
X170680000Y-63317381D02*
X170680000Y-62317381D01*
X170584762Y-62460238D01*
X170489524Y-62555476D01*
X170394286Y-62603095D01*
X178411143Y-73826666D02*
X178458762Y-73874285D01*
X178506381Y-74017142D01*
X178506381Y-74112380D01*
X178458762Y-74255238D01*
X178363524Y-74350476D01*
X178268286Y-74398095D01*
X178077810Y-74445714D01*
X177934952Y-74445714D01*
X177744476Y-74398095D01*
X177649238Y-74350476D01*
X177554000Y-74255238D01*
X177506381Y-74112380D01*
X177506381Y-74017142D01*
X177554000Y-73874285D01*
X177601619Y-73826666D01*
X177601619Y-73445714D02*
X177554000Y-73398095D01*
X177506381Y-73302857D01*
X177506381Y-73064761D01*
X177554000Y-72969523D01*
X177601619Y-72921904D01*
X177696857Y-72874285D01*
X177792095Y-72874285D01*
X177934952Y-72921904D01*
X178506381Y-73493333D01*
X178506381Y-72874285D01*
X161123334Y-79351143D02*
X161075715Y-79398762D01*
X160932858Y-79446381D01*
X160837620Y-79446381D01*
X160694762Y-79398762D01*
X160599524Y-79303524D01*
X160551905Y-79208286D01*
X160504286Y-79017810D01*
X160504286Y-78874952D01*
X160551905Y-78684476D01*
X160599524Y-78589238D01*
X160694762Y-78494000D01*
X160837620Y-78446381D01*
X160932858Y-78446381D01*
X161075715Y-78494000D01*
X161123334Y-78541619D01*
X161456667Y-78446381D02*
X162075715Y-78446381D01*
X161742381Y-78827333D01*
X161885239Y-78827333D01*
X161980477Y-78874952D01*
X162028096Y-78922571D01*
X162075715Y-79017810D01*
X162075715Y-79255905D01*
X162028096Y-79351143D01*
X161980477Y-79398762D01*
X161885239Y-79446381D01*
X161599524Y-79446381D01*
X161504286Y-79398762D01*
X161456667Y-79351143D01*
X164361905Y-75128381D02*
X164361905Y-74128381D01*
X164600000Y-74128381D01*
X164742858Y-74176000D01*
X164838096Y-74271238D01*
X164885715Y-74366476D01*
X164933334Y-74556952D01*
X164933334Y-74699810D01*
X164885715Y-74890286D01*
X164838096Y-74985524D01*
X164742858Y-75080762D01*
X164600000Y-75128381D01*
X164361905Y-75128381D01*
X165885715Y-75128381D02*
X165314286Y-75128381D01*
X165600000Y-75128381D02*
X165600000Y-74128381D01*
X165504762Y-74271238D01*
X165409524Y-74366476D01*
X165314286Y-74414095D01*
X159281905Y-74112381D02*
X159281905Y-73112381D01*
X159520000Y-73112381D01*
X159662858Y-73160000D01*
X159758096Y-73255238D01*
X159805715Y-73350476D01*
X159853334Y-73540952D01*
X159853334Y-73683810D01*
X159805715Y-73874286D01*
X159758096Y-73969524D01*
X159662858Y-74064762D01*
X159520000Y-74112381D01*
X159281905Y-74112381D01*
X160710477Y-73445714D02*
X160710477Y-74112381D01*
X160472381Y-73064762D02*
X160234286Y-73779048D01*
X160853334Y-73779048D01*
D17*
X168949068Y-76398725D02*
X168949068Y-75397965D01*
X169997483Y-76303414D02*
X169949828Y-76351070D01*
X169806862Y-76398725D01*
X169711552Y-76398725D01*
X169568586Y-76351070D01*
X169473275Y-76255759D01*
X169425620Y-76160449D01*
X169377965Y-75969828D01*
X169377965Y-75826862D01*
X169425620Y-75636241D01*
X169473275Y-75540930D01*
X169568586Y-75445620D01*
X169711552Y-75397965D01*
X169806862Y-75397965D01*
X169949828Y-75445620D01*
X169997483Y-75493275D01*
X170950588Y-76398725D02*
X170378725Y-76398725D01*
X170664656Y-76398725D02*
X170664656Y-75397965D01*
X170569346Y-75540930D01*
X170474035Y-75636241D01*
X170378725Y-75683896D01*
D13*
X163155334Y-63444381D02*
X162822000Y-62968190D01*
X162583905Y-63444381D02*
X162583905Y-62444381D01*
X162964858Y-62444381D01*
X163060096Y-62492000D01*
X163107715Y-62539619D01*
X163155334Y-62634857D01*
X163155334Y-62777714D01*
X163107715Y-62872952D01*
X163060096Y-62920571D01*
X162964858Y-62968190D01*
X162583905Y-62968190D01*
X164107715Y-63444381D02*
X163536286Y-63444381D01*
X163822000Y-63444381D02*
X163822000Y-62444381D01*
X163726762Y-62587238D01*
X163631524Y-62682476D01*
X163536286Y-62730095D01*
D17*
X162070143Y-66919929D02*
X161961286Y-66865500D01*
X161852429Y-66756643D01*
X161689143Y-66593357D01*
X161580286Y-66538929D01*
X161471429Y-66538929D01*
X161525857Y-66811071D02*
X161417000Y-66756643D01*
X161308143Y-66647786D01*
X161253714Y-66430071D01*
X161253714Y-66049071D01*
X161308143Y-65831357D01*
X161417000Y-65722500D01*
X161525857Y-65668071D01*
X161743571Y-65668071D01*
X161852429Y-65722500D01*
X161961286Y-65831357D01*
X162015714Y-66049071D01*
X162015714Y-66430071D01*
X161961286Y-66647786D01*
X161852429Y-66756643D01*
X161743571Y-66811071D01*
X161525857Y-66811071D01*
X163104286Y-66811071D02*
X162451143Y-66811071D01*
X162777715Y-66811071D02*
X162777715Y-65668071D01*
X162668858Y-65831357D01*
X162560000Y-65940214D01*
X162451143Y-65994643D01*
X169916203Y-68395669D02*
X169807346Y-68341240D01*
X169698489Y-68232383D01*
X169535203Y-68069097D01*
X169426346Y-68014669D01*
X169317489Y-68014669D01*
X169371917Y-68286811D02*
X169263060Y-68232383D01*
X169154203Y-68123526D01*
X169099774Y-67905811D01*
X169099774Y-67524811D01*
X169154203Y-67307097D01*
X169263060Y-67198240D01*
X169371917Y-67143811D01*
X169589631Y-67143811D01*
X169698489Y-67198240D01*
X169807346Y-67307097D01*
X169861774Y-67524811D01*
X169861774Y-67905811D01*
X169807346Y-68123526D01*
X169698489Y-68232383D01*
X169589631Y-68286811D01*
X169371917Y-68286811D01*
X170297203Y-67252669D02*
X170351632Y-67198240D01*
X170460489Y-67143811D01*
X170732632Y-67143811D01*
X170841489Y-67198240D01*
X170895918Y-67252669D01*
X170950346Y-67361526D01*
X170950346Y-67470383D01*
X170895918Y-67633669D01*
X170242775Y-68286811D01*
X170950346Y-68286811D01*
D13*
X164806334Y-67127381D02*
X164473000Y-66651190D01*
X164234905Y-67127381D02*
X164234905Y-66127381D01*
X164615858Y-66127381D01*
X164711096Y-66175000D01*
X164758715Y-66222619D01*
X164806334Y-66317857D01*
X164806334Y-66460714D01*
X164758715Y-66555952D01*
X164711096Y-66603571D01*
X164615858Y-66651190D01*
X164234905Y-66651190D01*
X165187286Y-66222619D02*
X165234905Y-66175000D01*
X165330143Y-66127381D01*
X165568239Y-66127381D01*
X165663477Y-66175000D01*
X165711096Y-66222619D01*
X165758715Y-66317857D01*
X165758715Y-66413095D01*
X165711096Y-66555952D01*
X165139667Y-67127381D01*
X165758715Y-67127381D01*
X158583334Y-75636381D02*
X158250000Y-75160190D01*
X158011905Y-75636381D02*
X158011905Y-74636381D01*
X158392858Y-74636381D01*
X158488096Y-74684000D01*
X158535715Y-74731619D01*
X158583334Y-74826857D01*
X158583334Y-74969714D01*
X158535715Y-75064952D01*
X158488096Y-75112571D01*
X158392858Y-75160190D01*
X158011905Y-75160190D01*
X158916667Y-74636381D02*
X159535715Y-74636381D01*
X159202381Y-75017333D01*
X159345239Y-75017333D01*
X159440477Y-75064952D01*
X159488096Y-75112571D01*
X159535715Y-75207810D01*
X159535715Y-75445905D01*
X159488096Y-75541143D01*
X159440477Y-75588762D01*
X159345239Y-75636381D01*
X159059524Y-75636381D01*
X158964286Y-75588762D01*
X158916667Y-75541143D01*
X177252334Y-77287381D02*
X176919000Y-76811190D01*
X176680905Y-77287381D02*
X176680905Y-76287381D01*
X177061858Y-76287381D01*
X177157096Y-76335000D01*
X177204715Y-76382619D01*
X177252334Y-76477857D01*
X177252334Y-76620714D01*
X177204715Y-76715952D01*
X177157096Y-76763571D01*
X177061858Y-76811190D01*
X176680905Y-76811190D01*
X178109477Y-76620714D02*
X178109477Y-77287381D01*
X177871381Y-76239762D02*
X177633286Y-76954048D01*
X178252334Y-76954048D01*
X177506334Y-82113381D02*
X177173000Y-81637190D01*
X176934905Y-82113381D02*
X176934905Y-81113381D01*
X177315858Y-81113381D01*
X177411096Y-81161000D01*
X177458715Y-81208619D01*
X177506334Y-81303857D01*
X177506334Y-81446714D01*
X177458715Y-81541952D01*
X177411096Y-81589571D01*
X177315858Y-81637190D01*
X176934905Y-81637190D01*
X178411096Y-81113381D02*
X177934905Y-81113381D01*
X177887286Y-81589571D01*
X177934905Y-81541952D01*
X178030143Y-81494333D01*
X178268239Y-81494333D01*
X178363477Y-81541952D01*
X178411096Y-81589571D01*
X178458715Y-81684810D01*
X178458715Y-81922905D01*
X178411096Y-82018143D01*
X178363477Y-82065762D01*
X178268239Y-82113381D01*
X178030143Y-82113381D01*
X177934905Y-82065762D01*
X177887286Y-82018143D01*
X164679334Y-84145381D02*
X164346000Y-83669190D01*
X164107905Y-84145381D02*
X164107905Y-83145381D01*
X164488858Y-83145381D01*
X164584096Y-83193000D01*
X164631715Y-83240619D01*
X164679334Y-83335857D01*
X164679334Y-83478714D01*
X164631715Y-83573952D01*
X164584096Y-83621571D01*
X164488858Y-83669190D01*
X164107905Y-83669190D01*
X165536477Y-83145381D02*
X165346000Y-83145381D01*
X165250762Y-83193000D01*
X165203143Y-83240619D01*
X165107905Y-83383476D01*
X165060286Y-83573952D01*
X165060286Y-83954905D01*
X165107905Y-84050143D01*
X165155524Y-84097762D01*
X165250762Y-84145381D01*
X165441239Y-84145381D01*
X165536477Y-84097762D01*
X165584096Y-84050143D01*
X165631715Y-83954905D01*
X165631715Y-83716810D01*
X165584096Y-83621571D01*
X165536477Y-83573952D01*
X165441239Y-83526333D01*
X165250762Y-83526333D01*
X165155524Y-83573952D01*
X165107905Y-83621571D01*
X165060286Y-83716810D01*
D17*
X171976143Y-80400071D02*
X171976143Y-81325357D01*
X172030571Y-81434214D01*
X172085000Y-81488643D01*
X172193857Y-81543071D01*
X172411571Y-81543071D01*
X172520429Y-81488643D01*
X172574857Y-81434214D01*
X172629286Y-81325357D01*
X172629286Y-80400071D01*
X173772286Y-81543071D02*
X173119143Y-81543071D01*
X173445715Y-81543071D02*
X173445715Y-80400071D01*
X173336858Y-80563357D01*
X173228000Y-80672214D01*
X173119143Y-80726643D01*
M02*
