G04 #@! TF.FileFunction,Copper,L2,Bot,Signal*
%FSLAX46Y46*%
G04 Gerber Fmt 4.6, Leading zero omitted, Abs format (unit mm)*
G04 Created by KiCad (PCBNEW 0.201511171411+6319~30~ubuntu15.10.1-product) date Fr 04 Dez 2015 11:52:51 CET*
%MOMM*%
G01*
G04 APERTURE LIST*
%ADD10C,0.100000*%
%ADD11R,1.727200X2.032000*%
%ADD12O,1.727200X2.032000*%
%ADD13R,3.000000X1.727200*%
%ADD14O,3.000000X1.727200*%
%ADD15R,3.000000X2.000000*%
%ADD16R,2.032000X1.727200*%
%ADD17O,2.032000X1.727200*%
%ADD18C,0.600000*%
%ADD19C,1.524000*%
%ADD20C,0.508000*%
%ADD21C,0.254000*%
G04 APERTURE END LIST*
D10*
D11*
X169037000Y-85725000D03*
D12*
X166497000Y-85725000D03*
X163957000Y-85725000D03*
D13*
X181991000Y-62738000D03*
D14*
X181991000Y-67818000D03*
X181991000Y-72898000D03*
D15*
X149733000Y-73152000D03*
D14*
X149733000Y-68072000D03*
X149733000Y-62992000D03*
D16*
X182118000Y-80264000D03*
D17*
X182118000Y-85344000D03*
D18*
X179578000Y-72898000D03*
X179578000Y-71374000D03*
X179578000Y-69850000D03*
X179578000Y-68326000D03*
X179578000Y-66548000D03*
X174244000Y-73152000D03*
X174244000Y-71628000D03*
X174244000Y-70485000D03*
X174244000Y-69088000D03*
X172720000Y-65024000D03*
X171704000Y-65024000D03*
X170688000Y-65024000D03*
X170688000Y-66040000D03*
X171704000Y-66040000D03*
X172720000Y-66040000D03*
X172720000Y-67056000D03*
X171704000Y-67056000D03*
X170688000Y-67056000D03*
X170688000Y-68072000D03*
X171704000Y-68072000D03*
X172720000Y-68072000D03*
X161290000Y-80391000D03*
X176149000Y-82296000D03*
X164084000Y-76708000D03*
X166116000Y-75438000D03*
X166116000Y-71120000D03*
X152400000Y-66802000D03*
X152400000Y-73152000D03*
X152400000Y-71882000D03*
X152400000Y-70612000D03*
X152400000Y-69342000D03*
X152400000Y-68072000D03*
X157988000Y-69215000D03*
X157988000Y-70485000D03*
X157988000Y-68072000D03*
X157988000Y-66548000D03*
X156972000Y-66548000D03*
X156972000Y-65532000D03*
X157988000Y-65532000D03*
X159004000Y-65532000D03*
X161036000Y-66548000D03*
X160020000Y-66548000D03*
X160020000Y-65532000D03*
X161036000Y-65532000D03*
X159004000Y-66548000D03*
X175641000Y-85344000D03*
D19*
X181991000Y-72898000D02*
X179578000Y-72898000D01*
X181991000Y-62738000D02*
X177800000Y-62738000D01*
X177800000Y-62738000D02*
X177292000Y-63246000D01*
X177292000Y-63246000D02*
X177292000Y-66294000D01*
X177292000Y-66294000D02*
X178816000Y-67818000D01*
X178816000Y-67818000D02*
X181991000Y-67818000D01*
D20*
X179578000Y-72898000D02*
X179578000Y-71374000D01*
X179578000Y-69850000D02*
X179578000Y-68326000D01*
D21*
X174244000Y-73152000D02*
X174244000Y-71628000D01*
X174244000Y-70485000D02*
X174244000Y-69088000D01*
X172720000Y-65024000D02*
X171704000Y-65024000D01*
X170688000Y-65024000D02*
X170688000Y-66040000D01*
X171704000Y-66040000D02*
X172720000Y-66040000D01*
X172720000Y-67056000D02*
X171704000Y-67056000D01*
X170688000Y-67056000D02*
X170688000Y-68072000D01*
X171704000Y-68072000D02*
X172720000Y-68072000D01*
D19*
X182118000Y-85344000D02*
X182118000Y-80264000D01*
D20*
X164084000Y-76708000D02*
X180848000Y-76708000D01*
X180848000Y-76708000D02*
X181864000Y-77724000D01*
X181864000Y-77724000D02*
X181864000Y-80010000D01*
X181864000Y-80010000D02*
X182118000Y-80264000D01*
D21*
X166116000Y-75438000D02*
X166116000Y-71120000D01*
D19*
X149733000Y-62992000D02*
X152654000Y-62992000D01*
X152654000Y-62992000D02*
X153162000Y-63500000D01*
X153162000Y-63500000D02*
X153162000Y-66040000D01*
X153162000Y-66040000D02*
X152400000Y-66802000D01*
X149733000Y-68072000D02*
X152908000Y-68072000D01*
X152908000Y-68072000D02*
X152654000Y-68326000D01*
X152654000Y-68326000D02*
X152400000Y-68072000D01*
X149733000Y-73152000D02*
X152400000Y-73152000D01*
D20*
X152400000Y-68072000D02*
X152400000Y-66802000D01*
X152400000Y-73152000D02*
X152400000Y-71882000D01*
X152400000Y-70612000D02*
X152400000Y-69342000D01*
D21*
X157988000Y-69215000D02*
X157988000Y-69088000D01*
X157988000Y-70485000D02*
X157988000Y-69088000D01*
X157988000Y-69088000D02*
X157988000Y-68072000D01*
X159004000Y-66548000D02*
X157988000Y-66548000D01*
X156972000Y-66548000D02*
X156972000Y-65532000D01*
X157988000Y-65532000D02*
X159004000Y-65532000D01*
X161036000Y-66548000D02*
X160020000Y-66548000D01*
X160020000Y-65532000D02*
X161036000Y-65532000D01*
X159004000Y-65532000D02*
X159004000Y-66548000D01*
X169037000Y-85725000D02*
X175260000Y-85725000D01*
X175260000Y-85725000D02*
X175641000Y-85344000D01*
G36*
X162941000Y-76073000D02*
X148513000Y-76073000D01*
X148513000Y-61137000D01*
X162941000Y-61137000D01*
X162941000Y-76073000D01*
X162941000Y-76073000D01*
G37*
X162941000Y-76073000D02*
X148513000Y-76073000D01*
X148513000Y-61137000D01*
X162941000Y-61137000D01*
X162941000Y-76073000D01*
G36*
X183719000Y-75057000D02*
X169799000Y-75057000D01*
X169799000Y-61137000D01*
X183719000Y-61137000D01*
X183719000Y-75057000D01*
X183719000Y-75057000D01*
G37*
X183719000Y-75057000D02*
X169799000Y-75057000D01*
X169799000Y-61137000D01*
X183719000Y-61137000D01*
X183719000Y-75057000D01*
G36*
X163290883Y-77236943D02*
X163553673Y-77500192D01*
X163897201Y-77642838D01*
X164269167Y-77643162D01*
X164380888Y-77597000D01*
X177165000Y-77597000D01*
X177165000Y-83259394D01*
X176858394Y-83566000D01*
X173534606Y-83566000D01*
X171539803Y-81571197D01*
X171497789Y-81543334D01*
X171450000Y-81534000D01*
X165608000Y-81534000D01*
X165558590Y-81544006D01*
X165518197Y-81571197D01*
X162126394Y-84963000D01*
X148590000Y-84963000D01*
X148590000Y-77089000D01*
X163229754Y-77089000D01*
X163290883Y-77236943D01*
X163290883Y-77236943D01*
G37*
X163290883Y-77236943D02*
X163553673Y-77500192D01*
X163897201Y-77642838D01*
X164269167Y-77643162D01*
X164380888Y-77597000D01*
X177165000Y-77597000D01*
X177165000Y-83259394D01*
X176858394Y-83566000D01*
X173534606Y-83566000D01*
X171539803Y-81571197D01*
X171497789Y-81543334D01*
X171450000Y-81534000D01*
X165608000Y-81534000D01*
X165558590Y-81544006D01*
X165518197Y-81571197D01*
X162126394Y-84963000D01*
X148590000Y-84963000D01*
X148590000Y-77089000D01*
X163229754Y-77089000D01*
X163290883Y-77236943D01*
M02*
