G04 #@! TF.FileFunction,Copper,L1,Top,Signal*
%FSLAX46Y46*%
G04 Gerber Fmt 4.6, Leading zero omitted, Abs format (unit mm)*
G04 Created by KiCad (PCBNEW 0.201511171411+6319~30~ubuntu15.10.1-product) date Fr 04 Dez 2015 11:52:51 CET*
%MOMM*%
G01*
G04 APERTURE LIST*
%ADD10C,0.100000*%
%ADD11R,1.727200X2.032000*%
%ADD12O,1.727200X2.032000*%
%ADD13R,3.000000X1.727200*%
%ADD14O,3.000000X1.727200*%
%ADD15R,3.000000X2.000000*%
%ADD16R,2.032000X1.727200*%
%ADD17O,2.032000X1.727200*%
%ADD18R,2.000000X2.500000*%
%ADD19R,1.250000X1.000000*%
%ADD20R,1.000000X1.250000*%
%ADD21R,0.600000X0.700000*%
%ADD22R,1.270000X0.381000*%
%ADD23R,1.570000X1.890000*%
%ADD24R,1.399540X0.599440*%
%ADD25R,2.799080X4.000500*%
%ADD26R,1.200000X0.900000*%
%ADD27R,0.800100X1.300480*%
%ADD28C,0.600000*%
%ADD29C,1.524000*%
%ADD30C,0.508000*%
%ADD31C,0.254000*%
%ADD32C,0.762000*%
%ADD33C,2.540000*%
G04 APERTURE END LIST*
D10*
D11*
X169037000Y-85725000D03*
D12*
X166497000Y-85725000D03*
X163957000Y-85725000D03*
D13*
X181991000Y-62738000D03*
D14*
X181991000Y-67818000D03*
X181991000Y-72898000D03*
D15*
X149733000Y-73152000D03*
D14*
X149733000Y-68072000D03*
X149733000Y-62992000D03*
D16*
X182118000Y-80264000D03*
D17*
X182118000Y-85344000D03*
D10*
G36*
X163451540Y-81400650D02*
X163451540Y-83699350D01*
X159849820Y-83099910D01*
X159849820Y-82000090D01*
X163451540Y-81400650D01*
X163451540Y-81400650D01*
G37*
G36*
X154048460Y-83699350D02*
X154048460Y-81400650D01*
X157650180Y-82000090D01*
X157650180Y-83099910D01*
X154048460Y-83699350D01*
X154048460Y-83699350D01*
G37*
G36*
X154044650Y-71371460D02*
X156343350Y-71371460D01*
X155743910Y-74973180D01*
X154644090Y-74973180D01*
X154044650Y-71371460D01*
X154044650Y-71371460D01*
G37*
G36*
X156343350Y-80774540D02*
X154044650Y-80774540D01*
X154644090Y-77172820D01*
X155743910Y-77172820D01*
X156343350Y-80774540D01*
X156343350Y-80774540D01*
G37*
D18*
X172053000Y-62865000D03*
X168053000Y-62865000D03*
D19*
X176403000Y-72533000D03*
X176403000Y-74533000D03*
D20*
X160417000Y-77343000D03*
X162417000Y-77343000D03*
D21*
X165800000Y-73406000D03*
X164400000Y-73406000D03*
X161352000Y-73533000D03*
X162752000Y-73533000D03*
D22*
X167767000Y-74970640D03*
X167767000Y-75620880D03*
X167767000Y-76271120D03*
X167767000Y-76921360D03*
X172085000Y-76921360D03*
X172085000Y-76271120D03*
X172085000Y-75620880D03*
X172085000Y-74970640D03*
D23*
X169926000Y-75946000D03*
D18*
X165195000Y-62865000D03*
X161195000Y-62865000D03*
D24*
X159385000Y-71755000D03*
X164719000Y-71755000D03*
X159385000Y-70485000D03*
X159385000Y-69215000D03*
X159385000Y-67945000D03*
X164719000Y-70485000D03*
X164719000Y-69215000D03*
X164719000Y-67945000D03*
D25*
X160782000Y-69850000D03*
D24*
X172593000Y-69215000D03*
X167259000Y-69215000D03*
X172593000Y-70485000D03*
X172593000Y-71755000D03*
X172593000Y-73025000D03*
X167259000Y-70485000D03*
X167259000Y-71755000D03*
X167259000Y-73025000D03*
D25*
X171196000Y-71120000D03*
D26*
X166667000Y-67564000D03*
X168867000Y-67564000D03*
X160444000Y-75184000D03*
X162644000Y-75184000D03*
X178519000Y-78232000D03*
X176319000Y-78232000D03*
X176446000Y-80264000D03*
X178646000Y-80264000D03*
X166540000Y-83058000D03*
X168740000Y-83058000D03*
D27*
X174117000Y-85166200D03*
X171577000Y-85166200D03*
X171577000Y-78663800D03*
X174117000Y-78663800D03*
D28*
X179578000Y-72898000D03*
X179578000Y-71374000D03*
X179578000Y-69850000D03*
X179578000Y-68326000D03*
X179578000Y-66548000D03*
X174244000Y-73152000D03*
X174244000Y-71628000D03*
X174244000Y-70485000D03*
X174244000Y-69088000D03*
X172720000Y-65024000D03*
X171704000Y-65024000D03*
X170688000Y-65024000D03*
X170688000Y-66040000D03*
X171704000Y-66040000D03*
X172720000Y-66040000D03*
X172720000Y-67056000D03*
X171704000Y-67056000D03*
X170688000Y-67056000D03*
X170688000Y-68072000D03*
X171704000Y-68072000D03*
X172720000Y-68072000D03*
X161290000Y-80391000D03*
X176149000Y-82296000D03*
X164084000Y-76708000D03*
X166116000Y-75438000D03*
X166116000Y-71120000D03*
X152400000Y-66802000D03*
X152400000Y-73152000D03*
X152400000Y-71882000D03*
X152400000Y-70612000D03*
X152400000Y-69342000D03*
X152400000Y-68072000D03*
X157988000Y-69215000D03*
X157988000Y-70485000D03*
X157988000Y-68072000D03*
X157988000Y-66548000D03*
X156972000Y-66548000D03*
X156972000Y-65532000D03*
X157988000Y-65532000D03*
X159004000Y-65532000D03*
X161036000Y-66548000D03*
X160020000Y-66548000D03*
X160020000Y-65532000D03*
X161036000Y-65532000D03*
X159004000Y-66548000D03*
X175641000Y-85344000D03*
D29*
X181991000Y-62738000D02*
X178054000Y-62738000D01*
X178054000Y-62738000D02*
X177546000Y-63246000D01*
X177546000Y-63246000D02*
X177546000Y-67818000D01*
X181991000Y-72898000D02*
X179578000Y-72898000D01*
X181991000Y-67818000D02*
X180086000Y-67818000D01*
X180086000Y-67818000D02*
X179578000Y-68326000D01*
D30*
X179578000Y-71374000D02*
X179578000Y-69850000D01*
X179578000Y-68326000D02*
X179578000Y-66548000D01*
D31*
X172085000Y-74970640D02*
X172085000Y-74295000D01*
X172085000Y-74295000D02*
X172593000Y-73787000D01*
X172593000Y-73787000D02*
X172593000Y-73025000D01*
X174117000Y-73025000D02*
X174244000Y-73152000D01*
X174244000Y-71628000D02*
X174244000Y-70485000D01*
X174244000Y-69088000D02*
X174244000Y-69215000D01*
X174244000Y-69215000D02*
X174244000Y-69088000D01*
X174244000Y-69088000D02*
X174244000Y-69215000D01*
D32*
X171196000Y-71120000D02*
X171196000Y-68580000D01*
X171196000Y-68580000D02*
X170688000Y-68072000D01*
D31*
X172720000Y-69088000D02*
X172720000Y-68072000D01*
X172053000Y-64357000D02*
X172720000Y-65024000D01*
X171704000Y-65024000D02*
X170688000Y-65024000D01*
X170688000Y-66040000D02*
X171704000Y-66040000D01*
X172720000Y-66040000D02*
X172720000Y-67056000D01*
X171704000Y-67056000D02*
X170688000Y-67056000D01*
X170688000Y-68072000D02*
X171704000Y-68072000D01*
X172053000Y-64357000D02*
X172053000Y-62865000D01*
X172720000Y-69088000D02*
X172593000Y-69215000D01*
D32*
X172053000Y-62865000D02*
X177927000Y-62865000D01*
X177927000Y-62865000D02*
X178054000Y-62738000D01*
X179578000Y-72898000D02*
X179578000Y-69850000D01*
X179578000Y-69850000D02*
X177546000Y-67818000D01*
D33*
X178054000Y-62738000D02*
X177292000Y-63500000D01*
X177292000Y-63500000D02*
X177292000Y-67564000D01*
X177546000Y-67818000D02*
X177292000Y-67564000D01*
D32*
X172593000Y-73025000D02*
X174117000Y-73025000D01*
X174752000Y-72390000D02*
X174752000Y-71120000D01*
X174117000Y-73025000D02*
X174752000Y-72390000D01*
X174752000Y-71120000D02*
X174752000Y-71628000D01*
X174752000Y-71628000D02*
X174752000Y-71120000D01*
X172593000Y-71755000D02*
X174117000Y-71755000D01*
X174879000Y-70993000D02*
X174879000Y-70485000D01*
X174117000Y-71755000D02*
X174752000Y-71120000D01*
X174752000Y-71120000D02*
X174879000Y-70993000D01*
X172593000Y-70485000D02*
X174879000Y-70485000D01*
X175641000Y-69723000D02*
X175641000Y-69215000D01*
X174879000Y-70485000D02*
X175641000Y-69723000D01*
X172593000Y-69215000D02*
X174244000Y-69215000D01*
X174244000Y-69215000D02*
X175641000Y-69215000D01*
X175641000Y-69215000D02*
X175768000Y-69088000D01*
X165195000Y-62865000D02*
X168053000Y-62865000D01*
D31*
X172085000Y-76271120D02*
X170251120Y-76271120D01*
X170251120Y-76271120D02*
X169926000Y-75946000D01*
X161650680Y-82550000D02*
X161650680Y-80751680D01*
X161650680Y-80751680D02*
X161290000Y-80391000D01*
X176446000Y-80264000D02*
X176446000Y-81999000D01*
X176446000Y-81999000D02*
X176149000Y-82296000D01*
X172085000Y-76271120D02*
X174045120Y-76271120D01*
X174045120Y-76271120D02*
X174244000Y-76470000D01*
X176403000Y-74533000D02*
X176403000Y-75565000D01*
X175498000Y-76470000D02*
X174244000Y-76470000D01*
X176403000Y-75565000D02*
X175498000Y-76470000D01*
X160417000Y-77343000D02*
X160417000Y-75211000D01*
X160417000Y-75211000D02*
X160528000Y-75100000D01*
X160528000Y-75100000D02*
X160528000Y-74357000D01*
X160528000Y-74357000D02*
X161352000Y-73533000D01*
D30*
X179578000Y-80264000D02*
X178646000Y-80264000D01*
X162417000Y-77343000D02*
X163449000Y-77343000D01*
X163449000Y-77343000D02*
X164084000Y-76708000D01*
X182118000Y-80264000D02*
X182118000Y-85344000D01*
X179408000Y-80264000D02*
X179578000Y-80264000D01*
X179578000Y-80264000D02*
X182118000Y-80264000D01*
D31*
X162644000Y-75184000D02*
X165100000Y-75184000D01*
X165800000Y-74484000D02*
X165800000Y-73406000D01*
X165100000Y-75184000D02*
X165800000Y-74484000D01*
X162644000Y-75184000D02*
X162644000Y-73641000D01*
X162644000Y-73641000D02*
X162752000Y-73533000D01*
X167259000Y-73025000D02*
X166181000Y-73025000D01*
X166181000Y-73025000D02*
X165800000Y-73406000D01*
X168867000Y-67564000D02*
X168867000Y-72306000D01*
X168148000Y-73025000D02*
X167259000Y-73025000D01*
X168867000Y-72306000D02*
X168148000Y-73025000D01*
X167767000Y-74970640D02*
X167767000Y-73533000D01*
X167767000Y-73533000D02*
X167259000Y-73025000D01*
X167513000Y-73279000D02*
X167259000Y-73025000D01*
X167767000Y-75620880D02*
X166298880Y-75620880D01*
X166298880Y-75620880D02*
X166116000Y-75438000D01*
X166116000Y-71120000D02*
X165989000Y-71120000D01*
X165989000Y-71120000D02*
X166116000Y-71120000D01*
X166116000Y-71120000D02*
X165989000Y-71120000D01*
X164400000Y-73406000D02*
X164400000Y-72074000D01*
X164400000Y-72074000D02*
X164719000Y-71755000D01*
D30*
X165989000Y-70485000D02*
X165989000Y-69215000D01*
X165989000Y-69215000D02*
X165989000Y-69342000D01*
X165989000Y-69342000D02*
X165989000Y-69215000D01*
X165989000Y-71755000D02*
X165989000Y-71120000D01*
X165989000Y-71120000D02*
X165989000Y-70485000D01*
X164719000Y-71755000D02*
X165989000Y-71755000D01*
X165989000Y-71755000D02*
X167259000Y-71755000D01*
X167259000Y-70485000D02*
X165989000Y-70485000D01*
X165989000Y-70485000D02*
X164719000Y-70485000D01*
X164719000Y-69215000D02*
X165989000Y-69215000D01*
X165989000Y-69215000D02*
X167259000Y-69215000D01*
X155194000Y-78973680D02*
X155194000Y-81894680D01*
X155194000Y-81894680D02*
X155849320Y-82550000D01*
D29*
X149733000Y-73152000D02*
X152400000Y-73152000D01*
X149733000Y-62992000D02*
X153416000Y-62992000D01*
X153416000Y-62992000D02*
X153543000Y-63119000D01*
X153543000Y-63119000D02*
X153543000Y-66929000D01*
X153543000Y-66929000D02*
X152400000Y-68072000D01*
X152400000Y-68072000D02*
X149733000Y-68072000D01*
D30*
X152400000Y-66802000D02*
X152400000Y-68072000D01*
X149733000Y-73152000D02*
X152400000Y-73152000D01*
X152400000Y-71882000D02*
X152400000Y-70612000D01*
X152400000Y-69342000D02*
X152400000Y-68072000D01*
D31*
X157988000Y-68072000D02*
X157988000Y-67945000D01*
X157988000Y-67945000D02*
X157988000Y-68072000D01*
X157988000Y-68072000D02*
X157988000Y-67945000D01*
X157988000Y-66548000D02*
X156972000Y-66548000D01*
X156972000Y-65532000D02*
X157988000Y-65532000D01*
X160020000Y-66548000D02*
X159004000Y-66548000D01*
X159004000Y-65532000D02*
X160020000Y-65532000D01*
D32*
X160782000Y-69850000D02*
X160782000Y-67310000D01*
X160782000Y-67310000D02*
X161036000Y-67056000D01*
D31*
X161036000Y-67056000D02*
X161036000Y-66548000D01*
X167767000Y-76921360D02*
X165902640Y-76921360D01*
X157988000Y-77724000D02*
X157988000Y-71755000D01*
X159004000Y-78740000D02*
X157988000Y-77724000D01*
X164084000Y-78740000D02*
X159004000Y-78740000D01*
X165902640Y-76921360D02*
X164084000Y-78740000D01*
D32*
X159385000Y-67945000D02*
X157988000Y-67945000D01*
X157988000Y-67945000D02*
X153543000Y-67945000D01*
X153543000Y-67945000D02*
X153416000Y-68072000D01*
X159385000Y-69215000D02*
X157988000Y-69215000D01*
X157988000Y-69215000D02*
X154559000Y-69215000D01*
X154940000Y-69088000D02*
X154940000Y-69596000D01*
X154686000Y-69088000D02*
X154940000Y-69088000D01*
X154559000Y-69215000D02*
X154686000Y-69088000D01*
X159385000Y-70485000D02*
X157988000Y-70485000D01*
X157988000Y-70485000D02*
X155829000Y-70485000D01*
X155829000Y-70485000D02*
X154940000Y-69596000D01*
X154940000Y-69596000D02*
X153416000Y-68072000D01*
X153416000Y-62992000D02*
X161068000Y-62992000D01*
X161068000Y-62992000D02*
X161195000Y-62865000D01*
X153416000Y-68072000D02*
X153416000Y-62992000D01*
X153416000Y-68072000D02*
X153416000Y-68580000D01*
X153416000Y-68580000D02*
X153416000Y-68072000D01*
X159385000Y-71755000D02*
X157988000Y-71755000D01*
X157988000Y-71755000D02*
X156611320Y-71755000D01*
X156611320Y-71755000D02*
X155194000Y-73172320D01*
D33*
X153416000Y-68072000D02*
X153416000Y-68072000D01*
D31*
X166497000Y-85725000D02*
X166497000Y-83101000D01*
X166497000Y-83101000D02*
X166540000Y-83058000D01*
X166667000Y-67564000D02*
X166243000Y-67564000D01*
X166243000Y-67564000D02*
X165862000Y-67945000D01*
X165862000Y-67945000D02*
X164719000Y-67945000D01*
X175463200Y-85166200D02*
X174117000Y-85166200D01*
X175641000Y-85344000D02*
X175463200Y-85166200D01*
X168740000Y-83058000D02*
X170688000Y-83058000D01*
X171577000Y-83947000D02*
X171577000Y-85166200D01*
X170688000Y-83058000D02*
X171577000Y-83947000D01*
X171577000Y-78663800D02*
X171577000Y-77978000D01*
X172085000Y-77470000D02*
X172085000Y-76921360D01*
X171577000Y-77978000D02*
X172085000Y-77470000D01*
X174117000Y-78663800D02*
X174828200Y-78663800D01*
X175260000Y-78232000D02*
X176319000Y-78232000D01*
X174828200Y-78663800D02*
X175260000Y-78232000D01*
G36*
X159656673Y-61255301D02*
X159560000Y-61488690D01*
X159560000Y-62579250D01*
X159718750Y-62738000D01*
X161068000Y-62738000D01*
X161068000Y-62718000D01*
X161322000Y-62718000D01*
X161322000Y-62738000D01*
X162671250Y-62738000D01*
X162830000Y-62579250D01*
X162830000Y-61488690D01*
X162733327Y-61255301D01*
X162615025Y-61137000D01*
X162941000Y-61137000D01*
X162941000Y-72535560D01*
X162452000Y-72535560D01*
X162216683Y-72579838D01*
X162050523Y-72686759D01*
X161903890Y-72586569D01*
X161652000Y-72535560D01*
X161052000Y-72535560D01*
X160816683Y-72579838D01*
X160600559Y-72718910D01*
X160455569Y-72931110D01*
X160404560Y-73183000D01*
X160404560Y-73402810D01*
X159989185Y-73818185D01*
X159824004Y-74065395D01*
X159818853Y-74091292D01*
X159608683Y-74130838D01*
X159392559Y-74269910D01*
X159247569Y-74482110D01*
X159196560Y-74734000D01*
X159196560Y-75634000D01*
X159240838Y-75869317D01*
X159371904Y-76073000D01*
X148513000Y-76073000D01*
X148513000Y-73299320D01*
X153709161Y-73299320D01*
X154005435Y-75079472D01*
X154040928Y-75208497D01*
X154180000Y-75424621D01*
X154392200Y-75569611D01*
X154644090Y-75620620D01*
X155067000Y-75620620D01*
X155067000Y-73299320D01*
X155321000Y-73299320D01*
X155321000Y-75620620D01*
X155743910Y-75620620D01*
X155877011Y-75606791D01*
X156113034Y-75505088D01*
X156290894Y-75319571D01*
X156382565Y-75079472D01*
X156678839Y-73299320D01*
X155321000Y-73299320D01*
X155067000Y-73299320D01*
X153709161Y-73299320D01*
X148513000Y-73299320D01*
X148513000Y-71477752D01*
X153405995Y-71477752D01*
X153666888Y-73045320D01*
X155067000Y-73045320D01*
X155067000Y-70724020D01*
X155321000Y-70724020D01*
X155321000Y-73045320D01*
X156721112Y-73045320D01*
X156982005Y-71477752D01*
X156946512Y-71136143D01*
X156807440Y-70920019D01*
X156595240Y-70775029D01*
X156343350Y-70724020D01*
X155321000Y-70724020D01*
X155067000Y-70724020D01*
X154044650Y-70724020D01*
X153713503Y-70815115D01*
X153523143Y-70987782D01*
X153414958Y-71220905D01*
X153405995Y-71477752D01*
X148513000Y-71477752D01*
X148513000Y-63150750D01*
X159560000Y-63150750D01*
X159560000Y-64241310D01*
X159656673Y-64474699D01*
X159835302Y-64653327D01*
X160068691Y-64750000D01*
X160909250Y-64750000D01*
X161068000Y-64591250D01*
X161068000Y-62992000D01*
X161322000Y-62992000D01*
X161322000Y-64591250D01*
X161480750Y-64750000D01*
X162321309Y-64750000D01*
X162554698Y-64653327D01*
X162733327Y-64474699D01*
X162830000Y-64241310D01*
X162830000Y-63150750D01*
X162671250Y-62992000D01*
X161322000Y-62992000D01*
X161068000Y-62992000D01*
X159718750Y-62992000D01*
X159560000Y-63150750D01*
X148513000Y-63150750D01*
X148513000Y-61137000D01*
X159774975Y-61137000D01*
X159656673Y-61255301D01*
X159656673Y-61255301D01*
G37*
X159656673Y-61255301D02*
X159560000Y-61488690D01*
X159560000Y-62579250D01*
X159718750Y-62738000D01*
X161068000Y-62738000D01*
X161068000Y-62718000D01*
X161322000Y-62718000D01*
X161322000Y-62738000D01*
X162671250Y-62738000D01*
X162830000Y-62579250D01*
X162830000Y-61488690D01*
X162733327Y-61255301D01*
X162615025Y-61137000D01*
X162941000Y-61137000D01*
X162941000Y-72535560D01*
X162452000Y-72535560D01*
X162216683Y-72579838D01*
X162050523Y-72686759D01*
X161903890Y-72586569D01*
X161652000Y-72535560D01*
X161052000Y-72535560D01*
X160816683Y-72579838D01*
X160600559Y-72718910D01*
X160455569Y-72931110D01*
X160404560Y-73183000D01*
X160404560Y-73402810D01*
X159989185Y-73818185D01*
X159824004Y-74065395D01*
X159818853Y-74091292D01*
X159608683Y-74130838D01*
X159392559Y-74269910D01*
X159247569Y-74482110D01*
X159196560Y-74734000D01*
X159196560Y-75634000D01*
X159240838Y-75869317D01*
X159371904Y-76073000D01*
X148513000Y-76073000D01*
X148513000Y-73299320D01*
X153709161Y-73299320D01*
X154005435Y-75079472D01*
X154040928Y-75208497D01*
X154180000Y-75424621D01*
X154392200Y-75569611D01*
X154644090Y-75620620D01*
X155067000Y-75620620D01*
X155067000Y-73299320D01*
X155321000Y-73299320D01*
X155321000Y-75620620D01*
X155743910Y-75620620D01*
X155877011Y-75606791D01*
X156113034Y-75505088D01*
X156290894Y-75319571D01*
X156382565Y-75079472D01*
X156678839Y-73299320D01*
X155321000Y-73299320D01*
X155067000Y-73299320D01*
X153709161Y-73299320D01*
X148513000Y-73299320D01*
X148513000Y-71477752D01*
X153405995Y-71477752D01*
X153666888Y-73045320D01*
X155067000Y-73045320D01*
X155067000Y-70724020D01*
X155321000Y-70724020D01*
X155321000Y-73045320D01*
X156721112Y-73045320D01*
X156982005Y-71477752D01*
X156946512Y-71136143D01*
X156807440Y-70920019D01*
X156595240Y-70775029D01*
X156343350Y-70724020D01*
X155321000Y-70724020D01*
X155067000Y-70724020D01*
X154044650Y-70724020D01*
X153713503Y-70815115D01*
X153523143Y-70987782D01*
X153414958Y-71220905D01*
X153405995Y-71477752D01*
X148513000Y-71477752D01*
X148513000Y-63150750D01*
X159560000Y-63150750D01*
X159560000Y-64241310D01*
X159656673Y-64474699D01*
X159835302Y-64653327D01*
X160068691Y-64750000D01*
X160909250Y-64750000D01*
X161068000Y-64591250D01*
X161068000Y-62992000D01*
X161322000Y-62992000D01*
X161322000Y-64591250D01*
X161480750Y-64750000D01*
X162321309Y-64750000D01*
X162554698Y-64653327D01*
X162733327Y-64474699D01*
X162830000Y-64241310D01*
X162830000Y-63150750D01*
X162671250Y-62992000D01*
X161322000Y-62992000D01*
X161068000Y-62992000D01*
X159718750Y-62992000D01*
X159560000Y-63150750D01*
X148513000Y-63150750D01*
X148513000Y-61137000D01*
X159774975Y-61137000D01*
X159656673Y-61255301D01*
G36*
X170514673Y-61255301D02*
X170418000Y-61488690D01*
X170418000Y-62579250D01*
X170576750Y-62738000D01*
X171926000Y-62738000D01*
X171926000Y-62718000D01*
X172180000Y-62718000D01*
X172180000Y-62738000D01*
X173529250Y-62738000D01*
X173688000Y-62579250D01*
X173688000Y-61488690D01*
X173591327Y-61255301D01*
X173473025Y-61137000D01*
X183719000Y-61137000D01*
X183719000Y-75057000D01*
X177670580Y-75057000D01*
X177675440Y-75033000D01*
X177675440Y-74033000D01*
X177631162Y-73797683D01*
X177492090Y-73581559D01*
X177423994Y-73535031D01*
X177566327Y-73392698D01*
X177663000Y-73159309D01*
X177663000Y-72818750D01*
X177504250Y-72660000D01*
X176530000Y-72660000D01*
X176530000Y-72680000D01*
X176276000Y-72680000D01*
X176276000Y-72660000D01*
X175301750Y-72660000D01*
X175143000Y-72818750D01*
X175143000Y-73159309D01*
X175239673Y-73392698D01*
X175380910Y-73533936D01*
X175326559Y-73568910D01*
X175181569Y-73781110D01*
X175130560Y-74033000D01*
X175130560Y-75033000D01*
X175135076Y-75057000D01*
X173234321Y-75057000D01*
X173184090Y-74978939D01*
X173032541Y-74875390D01*
X173196250Y-74875390D01*
X173355000Y-74716640D01*
X173355000Y-74653831D01*
X173258327Y-74420442D01*
X173079699Y-74241813D01*
X172846310Y-74145140D01*
X172370750Y-74145140D01*
X172212000Y-74303890D01*
X172212000Y-74782940D01*
X171958000Y-74782940D01*
X171958000Y-74303890D01*
X171799250Y-74145140D01*
X171323690Y-74145140D01*
X171090301Y-74241813D01*
X170933498Y-74398617D01*
X170711000Y-74353560D01*
X169799000Y-74353560D01*
X169799000Y-71906691D01*
X175143000Y-71906691D01*
X175143000Y-72247250D01*
X175301750Y-72406000D01*
X176276000Y-72406000D01*
X176276000Y-71556750D01*
X176530000Y-71556750D01*
X176530000Y-72406000D01*
X177504250Y-72406000D01*
X177663000Y-72247250D01*
X177663000Y-71906691D01*
X177566327Y-71673302D01*
X177387699Y-71494673D01*
X177154310Y-71398000D01*
X176688750Y-71398000D01*
X176530000Y-71556750D01*
X176276000Y-71556750D01*
X176117250Y-71398000D01*
X175651690Y-71398000D01*
X175418301Y-71494673D01*
X175239673Y-71673302D01*
X175143000Y-71906691D01*
X169799000Y-71906691D01*
X169799000Y-68554948D01*
X169918441Y-68478090D01*
X170063431Y-68265890D01*
X170114440Y-68014000D01*
X170114440Y-67114000D01*
X170070162Y-66878683D01*
X169931090Y-66662559D01*
X169799000Y-66572306D01*
X169799000Y-63150750D01*
X170418000Y-63150750D01*
X170418000Y-64241310D01*
X170514673Y-64474699D01*
X170693302Y-64653327D01*
X170926691Y-64750000D01*
X171767250Y-64750000D01*
X171926000Y-64591250D01*
X171926000Y-62992000D01*
X172180000Y-62992000D01*
X172180000Y-64591250D01*
X172338750Y-64750000D01*
X173179309Y-64750000D01*
X173412698Y-64653327D01*
X173591327Y-64474699D01*
X173688000Y-64241310D01*
X173688000Y-63150750D01*
X173529250Y-62992000D01*
X172180000Y-62992000D01*
X171926000Y-62992000D01*
X170576750Y-62992000D01*
X170418000Y-63150750D01*
X169799000Y-63150750D01*
X169799000Y-61137000D01*
X170632975Y-61137000D01*
X170514673Y-61255301D01*
X170514673Y-61255301D01*
G37*
X170514673Y-61255301D02*
X170418000Y-61488690D01*
X170418000Y-62579250D01*
X170576750Y-62738000D01*
X171926000Y-62738000D01*
X171926000Y-62718000D01*
X172180000Y-62718000D01*
X172180000Y-62738000D01*
X173529250Y-62738000D01*
X173688000Y-62579250D01*
X173688000Y-61488690D01*
X173591327Y-61255301D01*
X173473025Y-61137000D01*
X183719000Y-61137000D01*
X183719000Y-75057000D01*
X177670580Y-75057000D01*
X177675440Y-75033000D01*
X177675440Y-74033000D01*
X177631162Y-73797683D01*
X177492090Y-73581559D01*
X177423994Y-73535031D01*
X177566327Y-73392698D01*
X177663000Y-73159309D01*
X177663000Y-72818750D01*
X177504250Y-72660000D01*
X176530000Y-72660000D01*
X176530000Y-72680000D01*
X176276000Y-72680000D01*
X176276000Y-72660000D01*
X175301750Y-72660000D01*
X175143000Y-72818750D01*
X175143000Y-73159309D01*
X175239673Y-73392698D01*
X175380910Y-73533936D01*
X175326559Y-73568910D01*
X175181569Y-73781110D01*
X175130560Y-74033000D01*
X175130560Y-75033000D01*
X175135076Y-75057000D01*
X173234321Y-75057000D01*
X173184090Y-74978939D01*
X173032541Y-74875390D01*
X173196250Y-74875390D01*
X173355000Y-74716640D01*
X173355000Y-74653831D01*
X173258327Y-74420442D01*
X173079699Y-74241813D01*
X172846310Y-74145140D01*
X172370750Y-74145140D01*
X172212000Y-74303890D01*
X172212000Y-74782940D01*
X171958000Y-74782940D01*
X171958000Y-74303890D01*
X171799250Y-74145140D01*
X171323690Y-74145140D01*
X171090301Y-74241813D01*
X170933498Y-74398617D01*
X170711000Y-74353560D01*
X169799000Y-74353560D01*
X169799000Y-71906691D01*
X175143000Y-71906691D01*
X175143000Y-72247250D01*
X175301750Y-72406000D01*
X176276000Y-72406000D01*
X176276000Y-71556750D01*
X176530000Y-71556750D01*
X176530000Y-72406000D01*
X177504250Y-72406000D01*
X177663000Y-72247250D01*
X177663000Y-71906691D01*
X177566327Y-71673302D01*
X177387699Y-71494673D01*
X177154310Y-71398000D01*
X176688750Y-71398000D01*
X176530000Y-71556750D01*
X176276000Y-71556750D01*
X176117250Y-71398000D01*
X175651690Y-71398000D01*
X175418301Y-71494673D01*
X175239673Y-71673302D01*
X175143000Y-71906691D01*
X169799000Y-71906691D01*
X169799000Y-68554948D01*
X169918441Y-68478090D01*
X170063431Y-68265890D01*
X170114440Y-68014000D01*
X170114440Y-67114000D01*
X170070162Y-66878683D01*
X169931090Y-66662559D01*
X169799000Y-66572306D01*
X169799000Y-63150750D01*
X170418000Y-63150750D01*
X170418000Y-64241310D01*
X170514673Y-64474699D01*
X170693302Y-64653327D01*
X170926691Y-64750000D01*
X171767250Y-64750000D01*
X171926000Y-64591250D01*
X171926000Y-62992000D01*
X172180000Y-62992000D01*
X172180000Y-64591250D01*
X172338750Y-64750000D01*
X173179309Y-64750000D01*
X173412698Y-64653327D01*
X173591327Y-64474699D01*
X173688000Y-64241310D01*
X173688000Y-63150750D01*
X173529250Y-62992000D01*
X172180000Y-62992000D01*
X171926000Y-62992000D01*
X170576750Y-62992000D01*
X170418000Y-63150750D01*
X169799000Y-63150750D01*
X169799000Y-61137000D01*
X170632975Y-61137000D01*
X170514673Y-61255301D01*
G36*
X170053000Y-77367250D02*
X170211750Y-77526000D01*
X170761982Y-77526000D01*
X170725509Y-77549470D01*
X170580519Y-77761670D01*
X170529510Y-78013560D01*
X170529510Y-79314040D01*
X170573788Y-79549357D01*
X170712860Y-79765481D01*
X170925060Y-79910471D01*
X171176950Y-79961480D01*
X171977050Y-79961480D01*
X172212367Y-79917202D01*
X172428491Y-79778130D01*
X172573481Y-79565930D01*
X172624490Y-79314040D01*
X172624490Y-78013560D01*
X172623632Y-78008999D01*
X172623815Y-78008816D01*
X172788996Y-77761605D01*
X172792155Y-77745723D01*
X172955317Y-77715022D01*
X173171441Y-77575950D01*
X173316431Y-77363750D01*
X173367440Y-77111860D01*
X173367440Y-76730860D01*
X173345061Y-76611925D01*
X173355000Y-76587929D01*
X173355000Y-76525120D01*
X173319081Y-76489201D01*
X173184090Y-76279419D01*
X173173627Y-76272270D01*
X173223007Y-76200000D01*
X176604394Y-76200000D01*
X177165000Y-76760606D01*
X177165000Y-77184376D01*
X176919000Y-77134560D01*
X175719000Y-77134560D01*
X175483683Y-77178838D01*
X175267559Y-77317910D01*
X175148484Y-77492182D01*
X174978470Y-77526000D01*
X174968395Y-77528004D01*
X174949595Y-77540565D01*
X174768940Y-77417129D01*
X174517050Y-77366120D01*
X173716950Y-77366120D01*
X173481633Y-77410398D01*
X173265509Y-77549470D01*
X173120519Y-77761670D01*
X173069510Y-78013560D01*
X173069510Y-79314040D01*
X173113788Y-79549357D01*
X173252860Y-79765481D01*
X173465060Y-79910471D01*
X173716950Y-79961480D01*
X174517050Y-79961480D01*
X174752367Y-79917202D01*
X174968491Y-79778130D01*
X175113481Y-79565930D01*
X175158893Y-79341678D01*
X175361522Y-79206286D01*
X175467110Y-79278431D01*
X175480776Y-79281199D01*
X175307673Y-79454301D01*
X175211000Y-79687690D01*
X175211000Y-79978250D01*
X175369750Y-80137000D01*
X176319000Y-80137000D01*
X176319000Y-80117000D01*
X176573000Y-80117000D01*
X176573000Y-80137000D01*
X176593000Y-80137000D01*
X176593000Y-80391000D01*
X176573000Y-80391000D01*
X176573000Y-81190250D01*
X176731750Y-81349000D01*
X177165000Y-81349000D01*
X177165000Y-83259394D01*
X176858394Y-83566000D01*
X173534606Y-83566000D01*
X171539803Y-81571197D01*
X171497789Y-81543334D01*
X171450000Y-81534000D01*
X165608000Y-81534000D01*
X165558590Y-81544006D01*
X165518197Y-81571197D01*
X164098980Y-82990414D01*
X164098980Y-82677000D01*
X161777680Y-82677000D01*
X161777680Y-84077112D01*
X162836124Y-84253270D01*
X162126394Y-84963000D01*
X148590000Y-84963000D01*
X148590000Y-77089000D01*
X154001695Y-77089000D01*
X153405995Y-80668248D01*
X153441488Y-81009857D01*
X153492631Y-81089336D01*
X153452029Y-81148760D01*
X153401020Y-81400650D01*
X153401020Y-83699350D01*
X153492115Y-84030497D01*
X153664782Y-84220857D01*
X153897905Y-84329042D01*
X154154752Y-84338005D01*
X157756472Y-83738565D01*
X157885497Y-83703072D01*
X158101621Y-83564000D01*
X158246611Y-83351800D01*
X158297620Y-83099910D01*
X158297620Y-82677000D01*
X159202380Y-82677000D01*
X159202380Y-83099910D01*
X159216209Y-83233011D01*
X159317912Y-83469034D01*
X159503429Y-83646894D01*
X159743528Y-83738565D01*
X161523680Y-84034839D01*
X161523680Y-82677000D01*
X159202380Y-82677000D01*
X158297620Y-82677000D01*
X158297620Y-82000090D01*
X159202380Y-82000090D01*
X159202380Y-82423000D01*
X161523680Y-82423000D01*
X161523680Y-81065161D01*
X159743528Y-81361435D01*
X159614503Y-81396928D01*
X159398379Y-81536000D01*
X159253389Y-81748200D01*
X159202380Y-82000090D01*
X158297620Y-82000090D01*
X158283791Y-81866989D01*
X158182088Y-81630966D01*
X157996571Y-81453106D01*
X157756472Y-81361435D01*
X156813786Y-81204542D01*
X156864857Y-81158218D01*
X156927659Y-81022888D01*
X161777680Y-81022888D01*
X161777680Y-82423000D01*
X164098980Y-82423000D01*
X164098980Y-81400650D01*
X164007885Y-81069503D01*
X163835218Y-80879143D01*
X163602095Y-80770958D01*
X163345248Y-80761995D01*
X161777680Y-81022888D01*
X156927659Y-81022888D01*
X156973042Y-80925095D01*
X156982005Y-80668248D01*
X156962284Y-80549750D01*
X175211000Y-80549750D01*
X175211000Y-80840310D01*
X175307673Y-81073699D01*
X175486302Y-81252327D01*
X175719691Y-81349000D01*
X176160250Y-81349000D01*
X176319000Y-81190250D01*
X176319000Y-80391000D01*
X175369750Y-80391000D01*
X175211000Y-80549750D01*
X156962284Y-80549750D01*
X156386305Y-77089000D01*
X157226000Y-77089000D01*
X157226000Y-77724000D01*
X157284004Y-78015605D01*
X157304979Y-78046996D01*
X157449185Y-78262815D01*
X158465185Y-79278815D01*
X158712395Y-79443996D01*
X159004000Y-79502000D01*
X164084000Y-79502000D01*
X164375605Y-79443996D01*
X164622815Y-79278815D01*
X166218271Y-77683360D01*
X166843622Y-77683360D01*
X166880110Y-77708291D01*
X167132000Y-77759300D01*
X168402000Y-77759300D01*
X168637317Y-77715022D01*
X168853441Y-77575950D01*
X168915612Y-77484960D01*
X169014690Y-77526000D01*
X169640250Y-77526000D01*
X169799000Y-77367250D01*
X169799000Y-76200000D01*
X170053000Y-76200000D01*
X170053000Y-77367250D01*
X170053000Y-77367250D01*
G37*
X170053000Y-77367250D02*
X170211750Y-77526000D01*
X170761982Y-77526000D01*
X170725509Y-77549470D01*
X170580519Y-77761670D01*
X170529510Y-78013560D01*
X170529510Y-79314040D01*
X170573788Y-79549357D01*
X170712860Y-79765481D01*
X170925060Y-79910471D01*
X171176950Y-79961480D01*
X171977050Y-79961480D01*
X172212367Y-79917202D01*
X172428491Y-79778130D01*
X172573481Y-79565930D01*
X172624490Y-79314040D01*
X172624490Y-78013560D01*
X172623632Y-78008999D01*
X172623815Y-78008816D01*
X172788996Y-77761605D01*
X172792155Y-77745723D01*
X172955317Y-77715022D01*
X173171441Y-77575950D01*
X173316431Y-77363750D01*
X173367440Y-77111860D01*
X173367440Y-76730860D01*
X173345061Y-76611925D01*
X173355000Y-76587929D01*
X173355000Y-76525120D01*
X173319081Y-76489201D01*
X173184090Y-76279419D01*
X173173627Y-76272270D01*
X173223007Y-76200000D01*
X176604394Y-76200000D01*
X177165000Y-76760606D01*
X177165000Y-77184376D01*
X176919000Y-77134560D01*
X175719000Y-77134560D01*
X175483683Y-77178838D01*
X175267559Y-77317910D01*
X175148484Y-77492182D01*
X174978470Y-77526000D01*
X174968395Y-77528004D01*
X174949595Y-77540565D01*
X174768940Y-77417129D01*
X174517050Y-77366120D01*
X173716950Y-77366120D01*
X173481633Y-77410398D01*
X173265509Y-77549470D01*
X173120519Y-77761670D01*
X173069510Y-78013560D01*
X173069510Y-79314040D01*
X173113788Y-79549357D01*
X173252860Y-79765481D01*
X173465060Y-79910471D01*
X173716950Y-79961480D01*
X174517050Y-79961480D01*
X174752367Y-79917202D01*
X174968491Y-79778130D01*
X175113481Y-79565930D01*
X175158893Y-79341678D01*
X175361522Y-79206286D01*
X175467110Y-79278431D01*
X175480776Y-79281199D01*
X175307673Y-79454301D01*
X175211000Y-79687690D01*
X175211000Y-79978250D01*
X175369750Y-80137000D01*
X176319000Y-80137000D01*
X176319000Y-80117000D01*
X176573000Y-80117000D01*
X176573000Y-80137000D01*
X176593000Y-80137000D01*
X176593000Y-80391000D01*
X176573000Y-80391000D01*
X176573000Y-81190250D01*
X176731750Y-81349000D01*
X177165000Y-81349000D01*
X177165000Y-83259394D01*
X176858394Y-83566000D01*
X173534606Y-83566000D01*
X171539803Y-81571197D01*
X171497789Y-81543334D01*
X171450000Y-81534000D01*
X165608000Y-81534000D01*
X165558590Y-81544006D01*
X165518197Y-81571197D01*
X164098980Y-82990414D01*
X164098980Y-82677000D01*
X161777680Y-82677000D01*
X161777680Y-84077112D01*
X162836124Y-84253270D01*
X162126394Y-84963000D01*
X148590000Y-84963000D01*
X148590000Y-77089000D01*
X154001695Y-77089000D01*
X153405995Y-80668248D01*
X153441488Y-81009857D01*
X153492631Y-81089336D01*
X153452029Y-81148760D01*
X153401020Y-81400650D01*
X153401020Y-83699350D01*
X153492115Y-84030497D01*
X153664782Y-84220857D01*
X153897905Y-84329042D01*
X154154752Y-84338005D01*
X157756472Y-83738565D01*
X157885497Y-83703072D01*
X158101621Y-83564000D01*
X158246611Y-83351800D01*
X158297620Y-83099910D01*
X158297620Y-82677000D01*
X159202380Y-82677000D01*
X159202380Y-83099910D01*
X159216209Y-83233011D01*
X159317912Y-83469034D01*
X159503429Y-83646894D01*
X159743528Y-83738565D01*
X161523680Y-84034839D01*
X161523680Y-82677000D01*
X159202380Y-82677000D01*
X158297620Y-82677000D01*
X158297620Y-82000090D01*
X159202380Y-82000090D01*
X159202380Y-82423000D01*
X161523680Y-82423000D01*
X161523680Y-81065161D01*
X159743528Y-81361435D01*
X159614503Y-81396928D01*
X159398379Y-81536000D01*
X159253389Y-81748200D01*
X159202380Y-82000090D01*
X158297620Y-82000090D01*
X158283791Y-81866989D01*
X158182088Y-81630966D01*
X157996571Y-81453106D01*
X157756472Y-81361435D01*
X156813786Y-81204542D01*
X156864857Y-81158218D01*
X156927659Y-81022888D01*
X161777680Y-81022888D01*
X161777680Y-82423000D01*
X164098980Y-82423000D01*
X164098980Y-81400650D01*
X164007885Y-81069503D01*
X163835218Y-80879143D01*
X163602095Y-80770958D01*
X163345248Y-80761995D01*
X161777680Y-81022888D01*
X156927659Y-81022888D01*
X156973042Y-80925095D01*
X156982005Y-80668248D01*
X156962284Y-80549750D01*
X175211000Y-80549750D01*
X175211000Y-80840310D01*
X175307673Y-81073699D01*
X175486302Y-81252327D01*
X175719691Y-81349000D01*
X176160250Y-81349000D01*
X176319000Y-81190250D01*
X176319000Y-80391000D01*
X175369750Y-80391000D01*
X175211000Y-80549750D01*
X156962284Y-80549750D01*
X156386305Y-77089000D01*
X157226000Y-77089000D01*
X157226000Y-77724000D01*
X157284004Y-78015605D01*
X157304979Y-78046996D01*
X157449185Y-78262815D01*
X158465185Y-79278815D01*
X158712395Y-79443996D01*
X159004000Y-79502000D01*
X164084000Y-79502000D01*
X164375605Y-79443996D01*
X164622815Y-79278815D01*
X166218271Y-77683360D01*
X166843622Y-77683360D01*
X166880110Y-77708291D01*
X167132000Y-77759300D01*
X168402000Y-77759300D01*
X168637317Y-77715022D01*
X168853441Y-77575950D01*
X168915612Y-77484960D01*
X169014690Y-77526000D01*
X169640250Y-77526000D01*
X169799000Y-77367250D01*
X169799000Y-76200000D01*
X170053000Y-76200000D01*
X170053000Y-77367250D01*
M02*
